<svg width="22" height="22" viewBox="0 0 22 22" fill="none" xmlns="http://www.w3.org/2000/svg">
<path fill-rule="evenodd" clip-rule="evenodd" d="M20.8623 19.8116L15.8235 14.7728C15.7337 14.6829 15.6165 14.6361 15.4915 14.6361H15.0892C16.4289 13.1869 17.2492 11.2534 17.2492 9.1246C17.2492 4.63654 13.6127 1 9.1246 1C4.63654 1 1 4.63654 1 9.1246C1 13.6127 4.63654 17.2492 9.1246 17.2492C11.2534 17.2492 13.1869 16.4289 14.6361 15.0931V15.4915C14.6361 15.6165 14.6868 15.7337 14.7728 15.8235L19.8116 20.8623C19.9952 21.0459 20.292 21.0459 20.4756 20.8623L20.8623 20.4756C21.0459 20.292 21.0459 19.9952 20.8623 19.8116ZM9.1246 15.9993C5.32401 15.9993 2.24994 12.9252 2.24994 9.1246C2.24994 5.32401 5.32401 2.24994 9.1246 2.24994C12.9252 2.24994 15.9993 5.32401 15.9993 9.1246C15.9993 12.9252 12.9252 15.9993 9.1246 15.9993Z" fill="#69727D"/>
<path d="M20.8623 19.8116L20.9684 19.7055L20.8623 19.8116ZM15.8235 14.7728L15.7174 14.8788L15.8235 14.7728ZM15.0892 14.6361L14.979 14.5342L14.7462 14.7861H15.0892V14.6361ZM14.6361 15.0931H14.7861V14.7508L14.5344 14.9828L14.6361 15.0931ZM14.7728 15.8235L14.6643 15.9272L14.6667 15.9296L14.7728 15.8235ZM19.8116 20.8623L19.7055 20.9684L19.8116 20.8623ZM20.9684 19.7055L15.9296 14.6667L15.7174 14.8788L20.7562 19.9176L20.9684 19.7055ZM15.9296 14.6667C15.8109 14.548 15.6552 14.4861 15.4915 14.4861V14.7861C15.5777 14.7861 15.6564 14.8178 15.7174 14.8788L15.9296 14.6667ZM15.4915 14.4861H15.0892V14.7861H15.4915V14.4861ZM15.1993 14.7379C16.5636 13.2622 17.3992 11.2928 17.3992 9.1246H17.0992C17.0992 11.214 16.2943 13.1116 14.979 14.5342L15.1993 14.7379ZM17.3992 9.1246C17.3992 4.5537 13.6955 0.85 9.1246 0.85V1.15C13.5298 1.15 17.0992 4.71938 17.0992 9.1246H17.3992ZM9.1246 0.85C4.5537 0.85 0.85 4.5537 0.85 9.1246H1.15C1.15 4.71938 4.71938 1.15 9.1246 1.15V0.85ZM0.85 9.1246C0.85 13.6955 4.5537 17.3992 9.1246 17.3992V17.0992C4.71938 17.0992 1.15 13.5298 1.15 9.1246H0.85ZM9.1246 17.3992C11.2928 17.3992 13.2621 16.5636 14.7377 15.2034L14.5344 14.9828C13.1117 16.2943 11.214 17.0992 9.1246 17.0992V17.3992ZM14.4861 15.0931V15.4915H14.7861V15.0931H14.4861ZM14.4861 15.4915C14.4861 15.658 14.5538 15.8116 14.6644 15.9272L14.8812 15.7198C14.8198 15.6557 14.7861 15.5749 14.7861 15.4915H14.4861ZM14.6667 15.9296L19.7055 20.9684L19.9176 20.7562L14.8788 15.7174L14.6667 15.9296ZM19.7055 20.9684C19.9477 21.2105 20.3395 21.2105 20.5817 20.9684L20.3695 20.7562C20.2445 20.8813 20.0427 20.8813 19.9176 20.7562L19.7055 20.9684ZM20.5817 20.9684L20.9684 20.5817L20.7562 20.3695L20.3695 20.7562L20.5817 20.9684ZM20.9684 20.5817C21.2105 20.3395 21.2105 19.9477 20.9684 19.7055L20.7562 19.9176C20.8813 20.0427 20.8813 20.2445 20.7562 20.3695L20.9684 20.5817ZM9.1246 15.8493C5.40685 15.8493 2.39994 12.8424 2.39994 9.1246H2.09994C2.09994 13.008 5.24116 16.1493 9.1246 16.1493V15.8493ZM2.39994 9.1246C2.39994 5.40685 5.40685 2.39994 9.1246 2.39994V2.09994C5.24116 2.09994 2.09994 5.24116 2.09994 9.1246H2.39994ZM9.1246 2.39994C12.8424 2.39994 15.8493 5.40685 15.8493 9.1246H16.1493C16.1493 5.24116 13.008 2.09994 9.1246 2.09994V2.39994ZM15.8493 9.1246C15.8493 12.8424 12.8424 15.8493 9.1246 15.8493V16.1493C13.008 16.1493 16.1493 13.008 16.1493 9.1246H15.8493Z" fill="#69727D"/>
</svg>
