<svg xmlns:xlink="http://www.w3.org/1999/xlink" xmlns="http://www.w3.org/2000/svg" class="icon-src icon-src-auto" viewBox="0 0 3210 512" width="3210"  height="512" ><path fill="#0C0D0E" fill-rule="evenodd" d="M43.1458 398.226C15.0148 356.127 0 306.632 0 256c0-67.895 26.9727-133.01 74.9842-181.0193C122.996 26.9714 188.114 0 256.012 0c50.634 0 100.132 15.0141 142.233 43.1437 42.101 28.1297 74.914 68.1113 94.291 114.8893 19.377 46.778 24.447 98.251 14.569 147.91-9.879 49.659-34.261 95.274-70.065 131.076-35.804 35.803-81.421 60.184-131.083 70.062-49.661 9.878-101.137 4.808-147.917-14.568-46.78-19.376-86.7633-52.188-114.8942-94.287ZM192.019 149.325h-42.662v213.34h42.662v-213.34Zm170.649 0H234.682v42.66h127.986v-42.66Zm0 85.321H234.682v42.66h127.986v-42.66Zm0 85.359H234.682v42.66h127.986v-42.66Z"></path><path fill="#0C0D0E" d="M2009.79 250.706s-27.64 6.563-50.98 12.123l-35.54 8.068h-.31c0-9.535.7-19.612 2.98-28.877 2.94-11.891 9.41-25.789 20.6-31.889 12.19-6.641 27.06-7.413 39.99-2.278 13.35 5.289 19.47 18.145 22.1 31.464.74 3.707 1.24 7.451 1.59 11.235l-.43.154Zm92.6 20.153c0-92.386-58.38-132.112-132.94-132.112-84.31 0-137.11 58.219-137.11 132.575 0 80.842 44.94 133.502 141.76 133.502 52.34 0 81.99-9.227 117.18-26.793l-13.43-60.535c-26.87 12.006-51.88 19.38-85.25 19.38-36.58 0-57.44-13.86-65.3-39.726h172.77c1.39-6.911 2.32-14.748 2.32-26.291ZM1239.2 250.706s-27.64 6.563-50.98 12.123l-35.54 8.068h-.31c0-9.535.7-19.612 2.98-28.877 2.94-11.891 9.41-25.789 20.6-31.889 12.19-6.641 27.05-7.413 39.98-2.278 13.36 5.289 19.48 18.145 22.11 31.464.73 3.707 1.24 7.451 1.59 11.235l-.43.154Zm92.6 20.153c0-92.386-58.38-132.112-132.94-132.112-84.31 0-137.11 58.219-137.11 132.575 0 80.842 44.94 133.502 141.76 133.502 52.34 0 81.99-9.227 117.18-26.793l-13.43-60.535c-26.87 12.006-51.88 19.38-85.25 19.38-36.58 0-57.45-13.86-65.3-39.726h172.77c1.39-6.911 2.32-14.748 2.32-26.291ZM1030.2 70.838h-85.555v324.758h85.555V70.838ZM2120.47 147.05h89.89l18.89 57.408c11.84-28.338 38.48-64.821 85.7-64.821 64.85 0 100.07 32.777 100.07 117.325V395.56h-89.85c0-28.878.04-57.755.08-86.633 0-13.242-.23-26.484-.04-39.726.16-12.239 1.01-24.863-5.49-35.827-4.42-7.413-11.66-12.856-19.48-16.562-15.87-7.567-33.06-7.336-48.62.733-3.83 1.969-22.33 11.968-22.33 16.601V395.56h-89.85V214.109l-18.97-67.059ZM2487.72 212.177h-41.23v-65.129h41.23v-40.73l89.85-21.0794v61.8094h90.31v65.129h-90.31v73.005c0 28.646 13.9 42.042 34.72 42.042 21.29 0 33.37-2.779 51.41-8.763l10.65 67.445c-24.55 10.617-55.13 15.713-86.17 15.713-65.31 0-100.54-30.962-100.54-90.995v-98.447h.08ZM2840.81 330.932c32.87 0 52.34-23.55 52.34-61.462 0-37.911-18.54-59.608-50.95-59.608-32.9 0-51.87 21.697-51.87 60.998 0 36.947 18.54 60.072 50.48 60.072Zm.93-193.573c84.31 0 145.9 52.659 145.9 134.428 0 82.232-61.59 131.648-146.83 131.648-84.78 0-145.01-50.806-145.01-131.648.04-81.769 59.81-134.428 145.94-134.428ZM1751.82 146.278c-15.91-6.525-33.91-8.957-51.06-6.486-8.75 1.274-17.31 3.783-25.24 7.683-21.76 10.732-38.75 35.17-47.89 56.983-5.96-25.094-23.42-47.718-48.89-58.18-15.91-6.525-33.91-8.957-51.06-6.486-8.75 1.274-17.31 3.783-25.24 7.683-21.72 10.694-38.68 35.054-47.81 56.79v-1.583l-18.31-55.632h-89.85l18.93 67.06v181.489h89.27V233.451c.31-1.196 4.29-3.436 4.99-3.976 10.45-7.412 22.76-15.057 35.85-16.022 13.35-1.004 26.52 5.791 34.49 16.369.85 1.159 1.66 2.317 2.4 3.552 6.54 10.965 5.65 23.589 5.5 35.827-.16 13.242.07 26.484.04 39.726-.04 28.878-.08 57.756-.08 86.633h89.89V233.49c.19-1.158 4.29-3.513 5.03-4.015 10.45-7.412 22.76-15.057 35.85-16.022 13.35-1.004 26.51 5.791 34.49 16.369.85 1.159 1.66 2.317 2.4 3.552 6.54 10.965 5.65 23.589 5.53 35.827-.15 13.242.08 26.484.04 39.726-.04 28.878-.08 57.756-.08 86.633h89.85V256.963c-.03-40.614-5.88-92.965-49.04-110.685ZM3200.21 139.675c-47.23 0-73.87 36.483-85.71 64.82l-18.93-57.408h-89.89l18.93 67.06v181.489h89.89V227.929c12.81-2.239 82.3 10.501 95.5 15.327V139.984c-3.21-.193-6.46-.309-9.79-.309ZM820.494 242.409s-27.64 6.563-50.983 12.122l-35.537 8.069h-.309c0-9.536.696-19.612 2.98-28.878 2.942-11.89 9.407-25.789 20.595-31.889 12.194-6.64 27.059-7.412 39.989-2.277 13.355 5.289 19.472 18.145 22.104 31.464.736 3.706 1.239 7.451 1.587 11.234l-.426.155Zm92.637 20.153c0-92.386-58.377-132.112-132.935-132.112-84.314 0-137.116 58.219-137.116 132.575 0 80.842 44.944 133.501 141.761 133.501 52.338 0 81.991-9.227 117.18-26.793l-13.433-60.535c-26.866 12.007-51.873 19.381-85.243 19.381-36.582 0-57.448-13.86-65.306-39.726h172.769c1.394-6.872 2.323-14.748 2.323-26.291Z"></path></svg>